<?xml version="1.0" encoding="UTF-8" standalone="no"?>
<svg xmlns:rdf="http://www.w3.org/1999/02/22-rdf-syntax-ns#" xmlns="http://www.w3.org/2000/svg" xml:space="preserve" height="189.53" viewBox="0 0 298.42331 189.53125" width="298.42" version="1.1" xmlns:cc="http://creativecommons.org/ns#" xmlns:dc="http://purl.org/dc/elements/1.1/"><g transform="matrix(0 1.25 1.25 0 -999.29 -316.72)"><g><path d="m285.68 1036.3c-3.478-1.62-6.032-4.96-7.008-9.17-0.396-1.7-1.894-2.74-4.31-4.29-1.682-1.08-3.419-2.19-4.811-3.85-1.928-2.29-2.944-5.18-2.944-8.35 0-2.27 0.525-4.7 1.519-7.04 0.538-1.25 1.192-2.49 2.001-3.782-0.174-0.501-0.328-1.032-0.448-1.587-0.251-1.167-0.381-2.43-0.381-3.758 0-1.336 0.125-2.78 0.387-4.409 0.476-3.003 2.262-7.471 3.253-9.804l-0.023-0.051c-6.536-15.914-10.551-34.309-11.628-53.256-2.244-3.003-3.964-5.898-4.988-8.416-1.436-3.521-2.164-7.284-2.164-11.18 0-5.95 1.737-11.766 4.922-16.567-2.185-4.852-3.377-10.436-3.377-15.922 0-4.274 0.726-8.456 2.103-12.09 3.149-8.308 9.95-15.009 18.337-18.148 6.249-12.946 14.25-23.739 23.191-31.279 10.142-8.546 21.643-13.059 33.264-13.059 13.448 0 26.513 5.952 37.787 17.215 10.212 10.22 18.729 24.604 24.629 41.603 5.998 17.289 9.169 37.019 9.169 57.066 0 42.974-14.517 82.156-37.898 102.32-0.202 0.21-4.05 3.1-4.05 3.1-3.694 2.79-7.344 4.94-11.155 6.58-11.708 5.03-24.599 5.11-36.328 0.23-0.782 0.59-1.611 1.15-2.472 1.69-1.931 1.19-3.959 2.15-6.024 2.87-2.212 0.77-4.484 1.27-6.789 1.48-0.281 0.21-0.564 0.42-0.843 0.6-0.805 0.53-1.666 0.99-2.559 1.35-3.434 1.41-7.209 1.37-10.362-0.1z" fill="#fff"/><path d="m281.59 1026.4c-1.115-4.82-6.874-5.98-9.746-9.4-2.957-3.51-2.676-8.26-0.962-12.28 0.553-1.29 1.425-2.93 2.657-4.673-1.836-3.615-1.215-7.25-0.895-9.573 0.507-3.695 2.443-8.369 3.453-10.213 1.954-3.571 4.015-4.561 5.201-6.575 0.446-0.764 1.801-3.126 2.549-7.789 1.03-6.427 0.51-10.97 0.384-14.095-0.624-9.188-2.47-18.89-2.921-22.183-0.427-1.664-3.987-6.582-7.233-10.423-4.862-5.75-5.077-7.309-5.387-9.904-1.145-9.665 5.509-13.833 5.535-13.85 0 0-0.195-4.53 0-7.134-3.837-5.537-4.934-12.423-3.709-18.029 0.672-2.84 1.989-5.463 4.052-7.525 0.038-0.04 2.226-2.312 5.737-3.554 0.13-0.048 4.177-1.602 8.876-0.889 1.849-7.883 4.42-11.572 4.963-12.354 1.354-1.952 3.622-2.876 5.135-3.163 2.698-0.429 5.626 0.43 8.113 1.762 0.368-2.896 1.104-5.821 1.882-7.679 0.577-1.245 2.599-5.467 8.292-4.896 0.049 0.005 2.543 0.164 7.881 2.211 1.506-2.985 4.711-6.591 5.799-7.716 2.989-3.082 6.549-2.852 6.806-2.834 0.008 0.003 0.017 0.003 0.024 0.006 5.689 0.747 11.938 8.309 13.752 11.122 13.063 3.313 21.062 15.969 24.379 24.651 0.078 0.208 4.935 11.787 3.85 23.217 4.491 7.029 3.95 20.644 3.956 21.787 0.034 6.972-1.599 14.974-1.613 15.052-1.352 7.536-2.823 7.73-4.399 8.035 1.118 11.835-1.426 21.371-1.506 21.7-1.092 4.64-2.178 5.295-3.36 6.05 0.771 9.862-0.676 17.179-1.267 19.476-1.509 5.859-3.732 8.393-5.547 9.972-0.045 5.276 0.034 7.65 0.486 9.309 1.329 4.851 0.147 10.511-0.271 12.191-1.395 5.17-4.436 10.54-9.471 15.25-2.283 1.49-4.659 2.81-7.197 3.9-10.966 4.72-23.235 4.77-34.231 0.12-0.462-0.19-0.916-0.39-1.37-0.61-6.499 5.5-13.155 6.37-15.292 6.55-0.505 0.04-0.677 0.05-1.068 0.36-1.003 0.78-2.291 1.5-3.004 1.79-2.531 1.03-5.454 1.12-7.958-0.04-2.871-1.34-4.655-4.11-5.355-7.13z" fill="#003087"/><path d="m134.01 7.7695c-0.8 0.025-1.59 0.0894-2.38 0.1719-0.24 0.0263-0.47 0.0606-0.71 0.0918-0.56 0.0713-1.11 0.1539-1.67 0.2539-0.26 0.0488-0.52 0.1025-0.79 0.1563-0.54 0.1137-1.08 0.2428-1.62 0.3828-0.23 0.0625-0.46 0.1134-0.69 0.1797-1.51 0.43-2.97 0.9734-4.38 1.6171-0.22 0.101-0.44 0.213-0.65 0.32-0.48 0.233-0.95 0.474-1.41 0.733-0.25 0.136-0.49 0.274-0.73 0.414-0.44 0.264-0.87 0.539-1.29 0.826-0.22 0.144-0.44 0.285-0.65 0.434-0.55 0.391-1.08 0.803-1.59 1.23-0.06 0.049-0.12 0.092-0.18 0.145h-0.01c-0.33-0.007-0.67-0.007-1 0-9.58-5.4241-22.642-6.7012-32.698-2.895-0.008 0.006-0.017 0.01-0.023 0.014-0.685 0.26-1.357 0.548-2.019 0.857-0.043 0.021-0.086 0.045-0.131 0.063-0.649 0.308-1.284 0.637-1.909 0.984-1.713 0.951-3.332 2.06-4.837 3.303-0.002 0-0.001 0.002-0.006 0.002-1.507 1.243-2.901 2.623-4.164 4.117v0.002c-0.354 0.415-0.691 0.839-1.024 1.269-0.031 0.043-0.063 0.087-0.095 0.127-0.304 0.402-0.596 0.81-0.879 1.225-0.062 0.084-0.121 0.173-0.178 0.258-0.256 0.38-0.504 0.767-0.744 1.158-0.085 0.139-0.17 0.279-0.25 0.416-0.212 0.354-0.415 0.708-0.612 1.066-0.108 0.203-0.214 0.41-0.32 0.614-0.162 0.308-0.321 0.62-0.471 0.933-0.138 0.295-0.27 0.593-0.4 0.891-0.106 0.24-0.215 0.479-0.316 0.721-0.185 0.456-0.358 0.909-0.524 1.377-0.037 0.096-0.076 0.196-0.115 0.298-0.201 0.585-0.389 1.18-0.563 1.784-32.926 15.118-54.162 38.92-54.162 65.691 0.0003 0.914 0.0311 1.82 0.0823 2.73 0.0125 0.24 0.03 0.49 0.045 0.73 0.0525 0.77 0.1215 1.54 0.2089 2.3 0.0188 0.15 0.0276 0.3 0.0489 0.45 0.1087 0.88 0.2473 1.77 0.4023 2.65 0.0413 0.22 0.0877 0.45 0.1289 0.67 0.1375 0.71 0.2882 1.42 0.4532 2.13 0.0512 0.21 0.0959 0.41 0.1484 0.62 0.215 0.87 0.4502 1.73 0.7091 2.59 0.055 0.18 0.119 0.36 0.174 0.54 0.223 0.71 0.461 1.41 0.713 2.11 0.083 0.23 0.164 0.46 0.252 0.69 0.316 0.84 0.647 1.69 1.009 2.52 0.043 0.1 0.091 0.2 0.133 0.3 0.33 0.75 0.679 1.49 1.041 2.23 0.114 0.24 0.23 0.48 0.35 0.71 0.369 0.74 0.753 1.47 1.158 2.19 0.056 0.1 0.107 0.2 0.164 0.3 0.455 0.81 0.936 1.61 1.43 2.41 0.141 0.22 0.285 0.45 0.425 0.67 0.413 0.64 0.836 1.28 1.272 1.92 0.122 0.18 0.242 0.36 0.367 0.53 0.543 0.78 1.108 1.55 1.686 2.31 0.151 0.2 0.308 0.39 0.463 0.59 0.47 0.61 0.954 1.21 1.449 1.81 0.174 0.2 0.346 0.42 0.519 0.62 0.63 0.75 1.277 1.49 1.94 2.22 0.132 0.14 0.269 0.28 0.404 0.43 0.563 0.61 1.14 1.21 1.729 1.82 0.21 0.21 0.422 0.42 0.634 0.64 0.692 0.69 1.395 1.38 2.121 2.06 0.064 0.06 0.13 0.12 0.194 0.18 0.724 0.68 1.472 1.34 2.228 2 0.238 0.21 0.48 0.42 0.719 0.63 0.656 0.56 1.324 1.12 2.004 1.67 0.167 0.14 0.331 0.28 0.504 0.41 0.822 0.66 1.661 1.31 2.514 1.96 0.25 0.18 0.502 0.37 0.753 0.56 0.68 0.5 1.373 1.01 2.069 1.5 0.245 0.17 0.483 0.35 0.73 0.52 0.894 0.62 1.8 1.23 2.723 1.84 0.231 0.15 0.467 0.3 0.703 0.45 0.743 0.48 1.496 0.95 2.262 1.42 0.29 0.19 0.584 0.37 0.875 0.55 0.965 0.58 1.94 1.16 2.933 1.72 0.16 0.09 0.325 0.18 0.485 0.27 0.869 0.49 1.749 0.98 2.636 1.45 0.323 0.18 0.648 0.35 0.973 0.52 0.894 0.48 1.803 0.94 2.719 1.4 0.169 0.08 0.335 0.17 0.508 0.25 1.055 0.53 2.131 1.04 3.215 1.54 0.331 0.16 0.667 0.31 1.003 0.46 0.865 0.4 1.74 0.79 2.622 1.17 0.285 0.13 0.572 0.25 0.857 0.38 1.11 0.47 2.234 0.94 3.369 1.39 0.321 0.13 0.65 0.26 0.973 0.39 0.897 0.35 1.797 0.7 2.707 1.04 0.347 0.13 0.699 0.26 1.049 0.39 1.168 0.43 2.347 0.85 3.537 1.26 0.267 0.09 0.54 0.18 0.812 0.27 0.978 0.33 1.963 0.66 2.951 0.97 0.393 0.13 0.784 0.25 1.178 0.37 1.155 0.36 2.315 0.72 3.49 1.06 0.17 0.05 0.337 0.09 0.506 0.15 1.227 0.35 2.466 0.69 3.713 1.01 0.418 0.11 0.833 0.23 1.25 0.33 1.245 0.33 2.501 0.64 3.764 0.94 0.137 0.03 0.273 0.07 0.412 0.1 1.762 0.41 3.542 0.8 5.34 1.18 0.22 0.04 0.44 0.09 0.66 0.13 1.75 0.36 3.51 0.69 5.29 1.01 0.31 0.05 0.61 0.11 0.91 0.16 1.74 0.3 3.5 0.58 5.27 0.84 0.34 0.05 0.69 0.1 1.03 0.14 1.76 0.25 3.54 0.49 5.32 0.7 0.35 0.04 0.7 0.08 1.04 0.12 1.81 0.2 3.63 0.38 5.46 0.55 0.33 0.02 0.65 0.05 0.97 0.07 1.88 0.16 3.76 0.3 5.66 0.41 0.26 0.01 0.53 0.02 0.8 0.04 1.96 0.11 3.93 0.2 5.92 0.25 0.17 0.01 0.34 0.01 0.5 0.01 2.1 0.06 4.2 0.09 6.32 0.09 6.14 0 12.2-0.24 18.13-0.71 0.07 0 0.13 0 0.2-0.01 2.6-0.21 5.16-0.46 7.71-0.75 0.41-0.05 0.82-0.09 1.23-0.14 1.32-0.16 2.62-0.33 3.92-0.51 0.15-0.02 0.29-0.04 0.44-0.06 1.21-0.17 2.42-0.35 3.62-0.54 0.24-0.04 0.49-0.08 0.73-0.11 0.56-0.09 1.13-0.2 1.69-0.29 0.15-0.03 0.3-0.06 0.46-0.08 0.72-0.12 1.43-0.24 2.15-0.37 1.03-0.19 2.04-0.39 3.06-0.59 0.4-0.08 0.8-0.15 1.19-0.23 1.09-0.22 2.16-0.46 3.23-0.7 0.29-0.06 0.57-0.12 0.85-0.18 1.01-0.23 2-0.47 2.99-0.7 0.39-0.1 0.78-0.19 1.16-0.28 0.79-0.2 1.56-0.4 2.33-0.61 0.56-0.14 1.12-0.28 1.68-0.43 0.81-0.22 1.61-0.45 2.41-0.68 0.54-0.15 1.08-0.3 1.61-0.46 0.86-0.25 1.71-0.51 2.56-0.78l1.38-0.42c0.79-0.26 1.58-0.52 2.37-0.78 0.48-0.17 0.97-0.32 1.45-0.49 0.68-0.23 1.36-0.48 2.03-0.72 0.55-0.19 1.1-0.38 1.65-0.59 0.7-0.25 1.39-0.52 2.08-0.79 0.56-0.21 1.12-0.42 1.67-0.64 0.69-0.27 1.38-0.56 2.06-0.84 0.52-0.21 1.04-0.42 1.54-0.63 0.07-0.03 0.13-0.06 0.2-0.09l1.59-0.69c0.56-0.25 1.13-0.49 1.68-0.74 0.69-0.31 1.35-0.63 2.03-0.94 0.46-0.22 0.94-0.44 1.4-0.66 0.58-0.28 1.15-0.57 1.72-0.85 0.55-0.28 1.1-0.55 1.64-0.83 0.65-0.32 1.27-0.66 1.9-1 0.44-0.23 0.89-0.47 1.33-0.71 0.28-0.15 0.55-0.3 0.82-0.46 0.23-0.13 0.45-0.25 0.68-0.38 0.56-0.31 1.13-0.63 1.68-0.96 0.16-0.09 0.31-0.18 0.46-0.27 0.42-0.25 0.83-0.49 1.24-0.73l1.32-0.81c0.58-0.36 1.15-0.72 1.72-1.09 0.42-0.27 0.84-0.54 1.25-0.8 0.26-0.17 0.51-0.35 0.76-0.52 0.23-0.15 0.45-0.3 0.67-0.45 0.48-0.33 0.97-0.66 1.44-0.99 0.53-0.37 1.05-0.76 1.58-1.14 0.39-0.28 0.77-0.56 1.15-0.83 0.51-0.39 1.01-0.78 1.51-1.17 0.39-0.29 0.76-0.59 1.14-0.88 0.51-0.41 1-0.82 1.5-1.23 0.35-0.3 0.71-0.59 1.05-0.88 0.5-0.42 0.97-0.84 1.45-1.26 0.31-0.29 0.65-0.57 0.97-0.86l1.47-1.38c0.41-0.4 0.83-0.79 1.23-1.18-5.56 2.29-12.9 3.95-21.58 1.57-0.03-0.01-0.06-0.01-0.09-0.01v-0.01c-22.69 16.28-57.55 26.7-96.64 26.7-68.382 0-123.82-31.87-123.82-71.195 0.003-20.969 15.764-39.813 40.835-52.844 0.068-0.036 0.133-0.067 0.202-0.107 1.27-0.653 2.561-1.293 3.875-1.92 0.256-0.121 0.513-0.242 0.769-0.363 1.286-0.604 2.588-1.195 3.922-1.768 0.02-0.01 0.041-0.023 0.064-0.029-0.005-0.145-0.011-0.29-0.011-0.438 0-9.36 5.121-17.56 13.23-20.636 8.199-3.115 19.514-1.555 26.664 3.578 2.27-0.155 5.96-0.049 7.65 0.009 4.77-6.367 15.21-8.953 23.46-5.589 2.06 0.835 4.91 3.18 8.21 5.894 1.28 1.054 2.61 2.139 3.94 3.192 18.52 0.767 35.91 3.874 51.27 8.81 4.46-0.57 8.47-1.691 11.63-3.629 1.54-1.446 2.81-2.509 3.83-3.271-18.83-7.39-40.86-12.1-64.56-13.223h-0.01v-0.002c-0.17-0.134-0.34-0.266-0.51-0.394-0.09-0.07-0.18-0.139-0.27-0.207-0.42-0.334-0.85-0.655-1.27-0.967-0.02-0.012-0.04-0.021-0.05-0.033-0.41-0.303-0.82-0.596-1.23-0.881-0.03-0.025-0.07-0.046-0.1-0.071-0.39-0.267-0.78-0.536-1.17-0.787-0.05-0.036-0.1-0.068-0.15-0.101-0.37-0.24-0.74-0.475-1.1-0.698-0.07-0.046-0.14-0.092-0.22-0.134-0.34-0.207-0.67-0.406-1.01-0.596-0.1-0.058-0.2-0.114-0.31-0.172-0.3-0.169-0.6-0.336-0.89-0.488-0.15-0.081-0.3-0.151-0.46-0.229-0.24-0.122-0.48-0.246-0.72-0.355-0.39-0.184-0.77-0.351-1.14-0.5061-2.62-1.0625-5.36-1.7207-8.13-2.0019-1.39-0.1425-2.78-0.191-4.17-0.1485zm145.68 70.678c-2.39 2.334-6.29 5.83-9.97 5.473-0.42-0.041-1.1 2.571-1.3 3.07-0.28 0.751-0.3 0.996-0.1 1.778 0.15 0.6 0.29 1.202 0.4 1.808 0.5 2.424 0.78 4.889 0.83 7.365 0.06 2.629-0.14 5.259-0.56 7.849-0.1 0.61-0.22 1.21-0.35 1.81-0.14 0.66 0.25 0.72 0.66 1.19 0.55 0.63 0.96 1.37 1.29 2.15 0.83 2.09 1.03 4.52 0.8 6.76 1.63-0.66 3.76-1.21 5.48-0.56 2.1 0.8 1.79 3.32 1.57 5.13 3.55-7.24 5.56-15.19 5.56-23.27 0-7.064-1.54-14.064-4.31-20.553zm-113.16 9.141c-0.13-0.006-0.24 0.006-0.29 0.043-0.5 2.51-1.64 4.931-2.98 7.099-1.65 2.67-3.99 5.74-6.95 7.01-2.13 0.91-4.92 0.34-5.42-2.222-0.27-1.383 0.34-2.822 0.25-4.237-0.09-1.312-0.44-2.8-1.4-3.763-0.53-0.1-1.74 0.605-2.26 0.783-0.58 0.202-1.02 2.621-1.31 3.275-1.17 2.603-2.92 4.914-5.03 6.834-1.63 1.49-3.49 2.8-5.53 3.67-1.79 0.76-4.99 1.04-5.89-1.23-0.58-1.47 0.53-2.93 0.97-4.27 0.47-1.461 0.71-2.997 0.73-4.527 0-0.384 0.17-1.849-0.14-2.16-0.73-0.757-2.4 1.613-2.85 2.029-2.4 2.229-5.12 4.128-8.05 5.578-2.25 1.11-5.32 2.59-7.88 1.91-1.08-0.3-1.99-1.05-2.25-2.16-0.31-1.308 0.35-2.403 0.9-3.529 1.01-2.077 1.86-4.4 2-6.733 0.07-1.097-5.07-2.137-6.01-2.353-0.15-0.031-1.67-0.473-1.75-0.346-0.33 0.489-0.62 1.005-0.89 1.523-1.32 2.46-2.4 5.265-2.38 8.092 0.01 1.283 0.09 2.426-1.02 3.306-0.96 0.77-2.27 0.93-3.455 0.79-5.239-0.63-9.393-6.412-10.809-11.131-8.843 4.285-8.986 16.691-7.336 24.951 0.868-0.17 2.805-0.57 2.805-0.57 0.021-1.25 0.414-2.6 0.58-3.09 0.984-2.95 2.653-6.01 4.89-8.21 2.097-2.05 6.41-3.29 7.506 0.43 0.934 3.17 0.93 6.54 3.569 8.93 0.237-1.33 0.652-2.64 1.17-3.89 0.98-2.36 2.62-5.22 5.18-6.13 2.25-0.8 4.73 0.45 4.76 3 0.02 1.72-0.11 3.24 0.36 4.95 0.45 1.61 1.14 3.14 1.94 4.6 0.46 0.84 0.95 1.66 1.48 2.45 0.44 0.68 0.6 1.43 1.45 1.07 1.16-0.48 2.11-1.38 2.8-2.41 0.72-1.09 1.21-2.36 1.38-3.66 0.16-1.25-0.07-2.5 0.33-3.72 0.75-2.24 2.98-2.17 4.8-1.29 5.53 2.69 6.32 9.34 7.22 14.74 4.23-1.55 6.61-5.75 7.85-9.85 0.56-1.89 0.93-3.84 1.12-5.8 0.16-1.66 0.07-4.05 1.98-4.76 1.95-0.73 4.29 0.7 5.83 1.76 1.81 1.23 3.44 2.72 4.96 4.29 0.37 0.38 0.74 0.77 1.1 1.17 0.06 0.07 2.04-0.92 2.28-1.02 1.52-0.61 3.35-0.88 4.63-1.94 2.07-1.71 3.32-4.28 3.85-6.882 0.39-1.963-0.43-4.672 1.31-6.09 2.2-1.808 5.26 0.131 7.11 1.541 2.5 1.903 4.63 4.325 6.43 6.891 1.01 1.42 1.92 2.91 2.71 4.46 0.35 0.69 0.67 1.39 0.97 2.11 0.22 0.51 0.42 1.82 0.99 1.66 2.88-0.81 5.35-3.02 7.06-5.42 0.78-1.12 1.48-2.36 1.81-3.7 0.29-1.16 0.82-2.402 1.87-3.077 1.87-1.208 4.19 0.162 5.51 1.569 1.83 1.948 2.64 5.158 3.32 7.658 0.92 3.4 1.54 7 1.39 10.54 3.95-0.82 7.69-2.78 10.95-5.12 3.04-2.18 5.24-4.68 7.23-7.8-7.16-2.63-13.77-6.371-20.81-9.282-6.27-2.599-12.97-5.473-19.74-6.459-0.82-0.12-1-0.048-1.71 0.47-0.67 0.484-1.37 0.941-2.1 1.336-1 0.552-2.12 1.021-3.27 1.118-1.58 0.13-2.92-0.639-3.62-2.047-0.3-0.622-0.49-1.306-0.57-1.991-0.04-0.32-1.05-0.247-1.34-0.277-1.01-0.096-2.03-0.198-3.05-0.297-0.18-0.017-0.84-0.177-1.24-0.193zm65.56 20.342c0.7 3.41 0.74 7.02 0.46 10.48 3.59-1.75 6.7-4.81 9.19-7.88-3.25-0.75-6.46-1.63-9.65-2.6z" transform="matrix(0 .8 .8 0 253.38 799.43)" fill="#fa4616"/><path d="m135.74 23.398c-3.68-0.066-7.12 1.506-9.92 3.817 3.31 0.665 6.57 1.579 9.66 2.945 1.66 0.73 3.26 1.574 4.81 2.492 0.71 0.422 1.02 0.441 1.82 0.428 0.58-0.006 1.16 0.004 1.74 0.024 3.98 0.131 7.95 0.594 11.89 1.162-1.59-0.264-3.19-1.537-4.48-2.414-2.04-1.389-4-2.896-5.88-4.493-2.7-2.293-6.05-3.897-9.64-3.961zm129.13 1.596c-3.47-0.059-7.24 1.674-9.88 3.52 1.76 1.253 3.06 3.293 4.42 4.937 1.48 1.773 3.03 3.619 5.09 4.715 2.37 1.256 4.55-0.545 6.96-0.09 1.41 0.269 0.84 1.142 0.6 2.119-0.16 0.627 0.9 1.047 1.1 1.662 0.7 2.145-5.44 0.246-6.25-0.025-2.75-0.922-5.32-2.303-7.7-3.953-2.15-1.495-3.97-3.265-5.82-5.102-1.24-1.216-2.56-2.376-4.15-3.091-4.87-2.18-11.24-0.906-15.97 1.002-4.71 1.902-9.74 4.664-13.3 8.357-1.87 1.935-3.59 3.917-5.73 5.58-1.31 1.024-2.72 1.945-4.22 2.674-1.13 0.549-2.96 1.512-4.26 1.312-1.41-0.225 0.09-1.21 0.56-1.48 0.82-0.465 1.58-1.035 2.34-1.6 1.77-1.33 3.89-2.86 5.05-4.791-3.68 1.426-8.01 1.568-11.9 1.766-5.09 0.262-10.23 0.219-15.31-0.279-4.77-0.47-9.49-1.504-14.22-2.252-6.89-1.089-13.82-1.976-20.79-2.461-3.69-0.259-7.41-0.148-11.1-0.401-2.69-0.185-5.06-2.158-7.56-3.092-5.14-1.912-11-3.213-16.51-3.066 1.68 3.259 5.05 5.741 7.94 7.854 1.28 0.935 2.59 1.829 3.94 2.668 0.64 0.398 3.03 1.437 2.51 2.398-0.68 1.256-3.68-0.414-4.43-0.777-1.92-0.932-3.72-2.105-5.44-3.371-3.52-2.584-6.7-5.582-10.04-8.397-4.37-3.694-9.22-5.896-15.036-5.902-5.323-0.012-11.749 1.829-14.815 6.533-2.869 4.401-2.937 10.543-1.455 15.435 0.361 1.194 0.843 2.359 1.483 3.434 0.34 0.569 1.333 1.845 0.957 2.582-0.605 1.179-4.222-2.393-4.735-2.896-2.171 3.678-4.197 7.877-3.832 12.267 0.176 2.131 0.948 4.157 2.119 5.932 0.349 0.527 2.574 2.951 1.821 3.726-0.709 0.727-2.87-1.138-3.34-1.529-0.513-0.425-2.218-2.584-2.785-2.256-2.702 1.538-5.218 3.4-7.496 5.518-8.575 7.96-13.459 19.151-15.053 30.616-0.833 5.98-1.111 12.22 0.662 18.05 1.575 5.19 4.549 9.86 8.281 13.78 8.199 8.6 19.692 13.82 31.203 16.18 5.675 1.17 11.251 1.4 16.991 0.64 6.16-0.8 12.22-2.4 18.06-4.51 5.31-1.92 10.56-4.28 15.25-7.43 0.99-0.67 1.93-1.6 3.01-2.09 1.35-0.61 2.95-0.64 4.41-0.61 2.36 0.06 4.71 0.2 7.07 0.23 11.64 0.14 23.34-0.32 34.94-1.33 2.44-0.21 4.89-0.46 7.32-0.77 3.13-0.41 6.05-0.32 9.16 0.1 5.63 0.74 11.37 0.77 17.04 0.77 4.72 0 9.48-0.26 14.2-0.07 3.13 0.13 6.25 0.44 9.38 0.65 2.67 0.18 5.43 0.4 8.1-0.01 5.64-0.89 11.24-3.74 15.55-7.43 1.98-1.68 3.83-3.7 4.86-6.11 0.44-1.01 1.73-4.8-0.45-4.73-1.22 0.04-2.37 0.83-3.46 1.33-1.01 0.46-2.05 0.87-3.1 1.24-2.41 0.86-4.9 1.53-7.4 2.08-5.69 1.24-11.49 1.9-17.29 2.24-10.95 0.66-22.26 0.44-33.06-1.62-5.31-1.02-10.4-3.27-15.33-5.4-4.81-2.08-9.52-4.44-14.39-6.36-5.96-2.35-13.08-2.37-19.22-0.71-4.56 1.24-8.72 3.86-12.78 6.19-4.69 2.67-9.34 5.46-14.11 7.98-1.81 0.95-3.64 1.92-5.57 2.59-3.42 1.19-7.11 1.19-10.57 0.14-5.06-1.55-8.5-5.27-12.9-7.94-5.383-3.27-11.686-3.75-17.816-2.81-2.745 0.43-5.476 1.2-7.912 2.55-2.442 1.35-4.1 3.43-6.176 5.24-2.005 1.76-5.704 4.14-7.436 0.7-0.572-1.13-0.312-2.51-0.625-3.73-0.288-1.13-0.893-2.15-1.404-3.2-2.675-5.43-4.032-11.56-1.572-17.35 1.185-2.79 2.815-5.403 4.58-7.862 0.88-1.222 1.807-2.414 2.826-3.523 0.516-0.555 1.631-1.899 2.547-1.453 1.085 0.519-2.211 5.285-2.621 6.035-1.213 2.234-2.411 4.483-3.465 6.803-2.815 6.18 1.298 13.17 3.945 18.68 1.16-1 2.335-2 3.52-2.98 0.826-0.68 1.657-1.36 2.512-2 0.546-0.41 0.226-0.81 0.086-1.44-0.144-0.64-0.275-1.28-0.391-1.92-0.839-4.7-0.858-9.6 0.437-14.217 2.228-7.941 8.386-14.036 16.356-16.166 5.114-1.368 10.149-0.88 15.249 0.244 3.04 0.665 6.05 1.494 9.01 2.482 2.92 0.974 5.7 2.157 8.74 2.727 3.59 0.675 7.29 0.822 10.94 0.58 2.97-0.198 6.11-0.5 8.94-1.488 4.22-1.473 8.16-3.925 11.96-6.239 4.28-2.602 8.46-5.357 12.64-8.113 4.06-2.676 7.93-5.233 12.86-6.025 6.29-1.01 12.08 0.973 18.02 2.742 6.53 1.939 13.44 3.994 20.32 3.021 4.19-0.593 7.84-2.239 11.58-4.134 4.51-2.284 8.95-4.704 13.43-7.032 3.6-1.867 7.27-3.944 11.14-5.189 2.74-0.873 5.71-0.952 8.55-0.92 3.45 0.038 6.89 0.36 10.3 0.832 5.04 0.703 10.35-3.809 12.29-8.156 2.41-5.46-2.79-8.985-7.1-11.051-2.89-1.386-5.4-2.781-7.36-5.426-1.09-1.485-1.63-3.305-2.9-4.674-1.56-1.688-3.54-2.368-5.62-2.404zm-193.03 24.506c-3.841 1.061-8.143 2.639-11.324 5.121-4.909 3.805-0.508 10.992 2.099 14.711 1.383-1.1 2.663-2.352 3.994-3.52 0.212-0.183 1.235-0.829 1.247-1.113 0.031-0.724 0.06-1.45 0.093-2.172 0.084-1.893 0.226-3.49 0.774-5.33 0.78-2.632 1.752-5.305 3.117-7.697zm-11.84 22.053c-3.665 0.132-7.508 0.788-10.949 2.086-2.983 1.127-4.535 3.558-3.969 6.769 0.551 3.049 1.581 6.108 2.781 8.959 2.717-6.725 6.792-12.896 12.137-17.814zm-13.603 21.888c-2.195 1.049-4.215 2.545-6.127 4.032-1.824 1.42-3.796 2.937-4.905 5.007-1.507 2.83-0.293 5.24 1.463 7.56 1.851 2.43 4.02 4.7 6.459 6.55-0.024-0.49-0.031-0.99-0.031-1.48 0-7.32 0.916-14.68 3.141-21.669zm153.76 46.879c-0.56 0.02-1.14 0.19-1.68 0.27-1.6 0.24-3.21 0.45-4.82 0.63-1.1 0.12-2.77 0-3.56 0.97-0.68 0.84 0.16 1.77 0.93 2.13 6.01 2.85 13.3 3.01 19.8 2.32 5.31-0.56 11.95-1.67 16.12-5.35-7.8 0.17-15.72 0.49-23.48-0.49-0.92-0.12-1.84-0.26-2.76-0.44-0.18-0.04-0.36-0.05-0.55-0.04zm-17.01 1.87c-0.42 0.01-0.83 0.06-1.27 0.09-1.54 0.11-3.08 0.21-4.63 0.3-3.45 0.22-6.9 0.39-10.36 0.52-6.56 0.25-13.14 0.44-19.7 0.16-0.83-0.03-1.8-0.39-2.24 0.43-0.22 0.4-0.31 0.85-0.26 1.31 0.12 1.27 1.17 2.27 2.15 2.98 2.43 1.76 5.77 2.86 8.69 3.55 6.2 1.46 12.79 1.42 19.11 0.9 4.67-0.38 9.46-1.02 13.93-2.47 1.13-0.36 4.28-1.19 2.88-2.74-1.4-1.53-2.86-2.94-4.71-3.93-0.75-0.4-1.53-0.72-2.34-0.95-0.43-0.12-0.84-0.15-1.25-0.15zm-46.13 7.48c-1.41-0.04-2.71 0.13-4.09 0.75-2.45 1.09-4.96 2.06-7.49 2.93-5.07 1.74-10.29 3.1-15.56 4.1 7.12 2.83 15.64 2.85 23.18 2.52 4.13-0.18 8.25-0.59 12.32-1.27 2.09-0.35 4.17-0.77 6.22-1.26 1.39-0.35 3.73-0.56 4.84-1.51 1.15-0.95-1.8-1.69-2.46-1.93-1.4-0.51-2.8-1.02-4.22-1.5-3.65-1.22-7.43-2.35-11.29-2.73-0.5-0.06-0.98-0.09-1.45-0.1z" transform="matrix(0 .8 .8 0 253.38 799.43)" fill="#046a38"/><path d="m134.7 4.6973c-7.23 0.0391-14.42 2.3535-20.16 6.7477-10.4-5.3847-23.723-6.3444-34.048-2.4294-9.859 3.7364-17.692 12-20.998 22.13-16.317 7.667-29.894 17.585-39.25 28.69-10.106 11.989-15.445 25.536-15.445 39.164-0.0002 15.8 7.061 31.21 20.424 44.57 12.376 12.38 29.871 22.72 50.584 29.91 21.221 7.36 45.463 11.25 70.103 11.25 54.39 0 101.68-18.8 125.23-46.26 0.35-0.43 0.65-0.83 0.86-1.12 0.04-0.05 0.07-0.1 0.1-0.14-0.45 0.37-0.89 0.72-1.3 1.01-2.4 1.73-4.25 2.35-6.7 3.58-0.33 0.32-0.56 0.53-0.6 0.57-0.24 0.23-0.49 0.46-0.74 0.7-0.45 0.42-0.89 0.85-1.35 1.26-0.01 0.02-0.02 0.03-0.04 0.05-0.32 0.29-0.66 0.57-0.97 0.86-0.03 0.01-0.04 0.03-0.06 0.05-0.45 0.4-0.89 0.79-1.37 1.19 0 0.01-0.01 0.01-0.02 0.02-0.34 0.29-0.7 0.58-1.05 0.88-0.03 0.02-0.06 0.05-0.09 0.07-0.46 0.38-0.91 0.75-1.37 1.12l-0.04 0.04c-0.38 0.3-0.75 0.59-1.14 0.88-0.02 0.02-0.06 0.05-0.09 0.07-0.46 0.36-0.91 0.71-1.38 1.06-0.02 0.01-0.03 0.02-0.04 0.04-0.38 0.28-0.76 0.55-1.15 0.83-0.06 0.04-0.11 0.09-0.18 0.13-0.46 0.33-0.91 0.67-1.38 1 0 0.01-0.02 0.01-0.02 0.01-0.69 0.49-1.4 0.96-2.11 1.44-0.24 0.17-0.48 0.33-0.73 0.5-0.01 0-0.02 0.01-0.03 0.02-0.41 0.27-0.83 0.53-1.25 0.8-0.09 0.05-0.17 0.11-0.25 0.17-0.48 0.3-0.95 0.6-1.43 0.9-0.01 0.01-0.03 0.02-0.04 0.02-0.43 0.27-0.88 0.54-1.32 0.81-0.09 0.05-0.17 0.1-0.25 0.15-0.33 0.19-0.66 0.38-0.99 0.58-0.92 0.54-1.86 1.08-2.82 1.61-0.26 0.15-0.52 0.3-0.79 0.45-0.01 0-0.02 0.01-0.03 0.01-0.44 0.24-0.89 0.48-1.33 0.71l-0.39 0.21c-0.5 0.26-0.99 0.53-1.5 0.79h-0.01c-0.54 0.28-1.09 0.55-1.64 0.83-0.05 0.02-0.11 0.05-0.16 0.08-0.51 0.25-1.01 0.5-1.52 0.75-0.01 0.01-0.03 0.01-0.04 0.02-0.46 0.22-0.94 0.44-1.4 0.66-0.14 0.06-0.29 0.13-0.43 0.2-0.52 0.24-1.03 0.48-1.56 0.72-0.01 0.01-0.02 0.01-0.04 0.02-0.55 0.25-1.12 0.49-1.68 0.74-0.06 0.03-0.13 0.05-0.18 0.08-0.47 0.2-0.94 0.41-1.41 0.61-0.58 0.25-1.16 0.48-1.74 0.72-0.14 0.06-0.27 0.11-0.41 0.17-0.54 0.22-1.09 0.45-1.64 0.67h-0.01c-0.55 0.22-1.11 0.43-1.67 0.64l-0.3 0.12c-0.56 0.21-1.13 0.43-1.7 0.64-0.02 0.01-0.05 0.02-0.08 0.03-0.54 0.21-1.1 0.4-1.65 0.59-0.09 0.04-0.18 0.07-0.27 0.1-0.58 0.21-1.16 0.42-1.75 0.62h-0.01c-0.48 0.17-0.97 0.32-1.45 0.49l-0.57 0.18c-0.6 0.2-1.19 0.4-1.8 0.6l-1.38 0.42c-0.23 0.07-0.45 0.14-0.68 0.21-0.61 0.18-1.22 0.38-1.83 0.56-0.02 0.01-0.03 0.01-0.05 0.01-0.53 0.16-1.07 0.31-1.61 0.46-0.14 0.04-0.28 0.08-0.42 0.12-0.63 0.18-1.26 0.36-1.89 0.53-0.03 0.01-0.07 0.02-0.1 0.03-0.55 0.15-1.12 0.29-1.68 0.43-0.1 0.03-0.21 0.06-0.32 0.09-0.65 0.17-1.29 0.34-1.94 0.5-0.02 0-0.04 0.01-0.07 0.02-0.38 0.09-0.77 0.18-1.16 0.28-0.3 0.07-0.59 0.13-0.89 0.21-0.66 0.15-1.32 0.32-1.99 0.46-0.03 0.01-0.07 0.02-0.11 0.03-0.28 0.06-0.56 0.12-0.85 0.18-0.39 0.09-0.78 0.17-1.17 0.26-0.68 0.14-1.35 0.29-2.03 0.43-0.01 0-0.02 0-0.03 0.01-0.39 0.08-0.79 0.15-1.19 0.23l-0.96 0.18c-0.68 0.13-1.36 0.27-2.04 0.4-0.02 0-0.04 0-0.06 0.01-0.87 0.16-1.74 0.3-2.61 0.45-0.54 0.09-1.07 0.19-1.62 0.28-0.02 0-0.05 0-0.07 0.01-0.24 0.03-0.49 0.07-0.73 0.11-0.48 0.07-0.96 0.14-1.44 0.22-0.7 0.1-1.39 0.21-2.1 0.31-0.02 0-0.05 0.01-0.08 0.01-0.15 0.02-0.29 0.04-0.44 0.06-0.58 0.08-1.16 0.15-1.74 0.23-0.71 0.09-1.41 0.19-2.13 0.27-0.01 0.01-0.03 0.01-0.05 0.01-0.41 0.05-0.82 0.09-1.23 0.14-0.36 0.03-0.71 0.07-1.07 0.11-0.69 0.08-1.39 0.16-2.09 0.23-0.82 0.09-1.64 0.15-2.46 0.22-0.68 0.07-1.35 0.13-2.02 0.19h-0.07c-0.07 0.01-0.13 0.01-0.2 0.01-0.77 0.06-1.54 0.11-2.31 0.17-0.66 0.04-1.3 0.09-1.96 0.13-0.92 0.06-1.85 0.1-2.78 0.14-0.6 0.03-1.2 0.07-1.8 0.09-1.07 0.05-2.14 0.07-3.22 0.1-0.46 0.01-0.93 0.03-1.4 0.04-1.55 0.03-3.1 0.04-4.66 0.04-2.12 0-4.22-0.03-6.32-0.09-0.16 0-0.33 0-0.5-0.01-1.99-0.05-3.96-0.14-5.92-0.25-0.27-0.02-0.54-0.03-0.8-0.04-1.9-0.11-3.78-0.25-5.66-0.41-0.32-0.02-0.64-0.05-0.97-0.07-1.83-0.17-3.65-0.35-5.46-0.55-0.34-0.04-0.69-0.08-1.04-0.12-1.78-0.21-3.56-0.44-5.32-0.7-0.34-0.04-0.69-0.09-1.03-0.14-1.77-0.26-3.53-0.54-5.27-0.84-0.3-0.05-0.6-0.11-0.91-0.16-1.78-0.32-3.54-0.65-5.29-1.01-0.22-0.04-0.44-0.09-0.66-0.13-1.798-0.38-3.578-0.77-5.34-1.18-0.049-0.01-0.1-0.02-0.149-0.03-0.086-0.03-0.174-0.05-0.263-0.07-1.263-0.3-2.519-0.61-3.764-0.94-0.417-0.1-0.832-0.22-1.25-0.33-1.247-0.33-2.486-0.66-3.713-1.01-0.079-0.03-0.161-0.05-0.238-0.08-0.091-0.02-0.178-0.05-0.268-0.07-1.175-0.34-2.335-0.7-3.49-1.06-0.394-0.12-0.785-0.24-1.178-0.37-0.988-0.31-1.973-0.64-2.951-0.97-0.272-0.09-0.545-0.18-0.812-0.27-1.19-0.41-2.369-0.83-3.537-1.26-0.35-0.13-0.702-0.26-1.049-0.39-0.91-0.34-1.81-0.69-2.707-1.04-0.323-0.13-0.652-0.26-0.973-0.39-1.135-0.45-2.259-0.92-3.369-1.39-0.285-0.13-0.572-0.25-0.857-0.38-0.882-0.38-1.757-0.77-2.622-1.17-0.336-0.15-0.672-0.3-1.003-0.46-1.084-0.5-2.16-1.01-3.215-1.54-0.173-0.08-0.339-0.17-0.508-0.25-0.916-0.46-1.825-0.92-2.719-1.4-0.325-0.17-0.65-0.34-0.973-0.52-0.887-0.47-1.767-0.96-2.636-1.45-0.16-0.09-0.325-0.18-0.485-0.27-0.993-0.56-1.968-1.14-2.933-1.72-0.291-0.18-0.585-0.36-0.875-0.55-0.766-0.47-1.519-0.94-2.262-1.42-0.236-0.15-0.472-0.3-0.703-0.45-0.923-0.61-1.829-1.22-2.723-1.84-0.247-0.17-0.485-0.35-0.73-0.52-0.696-0.49-1.389-1-2.069-1.5-0.251-0.19-0.503-0.38-0.753-0.56-0.853-0.65-1.692-1.3-2.514-1.96-0.173-0.13-0.337-0.27-0.504-0.41-0.68-0.55-1.348-1.11-2.004-1.67-0.239-0.21-0.481-0.42-0.719-0.63-0.756-0.66-1.504-1.32-2.228-2-0.064-0.06-0.13-0.12-0.194-0.18-0.726-0.68-1.429-1.37-2.121-2.06-0.212-0.22-0.424-0.43-0.634-0.64-0.589-0.61-1.166-1.21-1.729-1.82-0.135-0.15-0.272-0.29-0.404-0.43-0.663-0.73-1.31-1.47-1.94-2.22-0.173-0.2-0.345-0.42-0.519-0.62-0.495-0.6-0.979-1.2-1.449-1.81-0.155-0.2-0.312-0.39-0.463-0.59-0.578-0.76-1.143-1.53-1.686-2.31-0.125-0.17-0.245-0.35-0.367-0.53-0.436-0.64-0.859-1.28-1.272-1.92-0.14-0.22-0.284-0.45-0.425-0.67-0.494-0.8-0.975-1.6-1.43-2.41-0.057-0.1-0.108-0.2-0.164-0.3-0.405-0.72-0.789-1.45-1.158-2.19-0.12-0.23-0.236-0.47-0.35-0.71-0.362-0.74-0.711-1.48-1.041-2.23-0.042-0.1-0.09-0.2-0.133-0.3-0.362-0.83-0.693-1.68-1.009-2.52-0.088-0.23-0.169-0.46-0.252-0.69-0.252-0.7-0.49-1.4-0.713-2.11-0.055-0.18-0.119-0.36-0.174-0.54-0.2589-0.86-0.4941-1.72-0.7091-2.59-0.0525-0.21-0.0972-0.41-0.1484-0.62-0.165-0.71-0.3157-1.42-0.4532-2.13-0.0412-0.22-0.0876-0.45-0.1289-0.67-0.155-0.88-0.2936-1.77-0.4023-2.65-0.0213-0.15-0.0301-0.3-0.0489-0.45-0.0874-0.76-0.1564-1.53-0.2089-2.3-0.015-0.24-0.0325-0.49-0.045-0.73-0.0512-0.91-0.082-1.816-0.082-2.73v-0.004c0-26.767 21.235-50.569 54.16-65.687 0.169-0.604 0.361-1.199 0.565-1.784 0.039-0.102 0.078-0.202 0.115-0.298 0.166-0.468 0.339-0.921 0.524-1.377 0.096-0.242 0.21-0.481 0.316-0.721 0.13-0.298 0.262-0.596 0.4-0.891 0.15-0.313 0.311-0.625 0.471-0.933 0.106-0.204 0.212-0.411 0.32-0.614 0.197-0.358 0.4-0.712 0.612-1.066 0.08-0.137 0.165-0.277 0.25-0.416 0.24-0.391 0.488-0.774 0.744-1.158 0.057-0.085 0.116-0.174 0.178-0.258 0.283-0.415 0.575-0.823 0.879-1.225 0.032-0.04 0.064-0.084 0.095-0.127 0.333-0.43 0.67-0.854 1.02-1.269l0.004-0.002c1.263-1.498 2.657-2.874 4.164-4.117 0.005 0 0.004-0.002 0.006-0.002 2.057-1.696 4.319-3.147 6.746-4.287 0.045-0.018 0.088-0.042 0.131-0.063 0.663-0.305 1.334-0.597 2.019-0.857 0.006-0.004 0.013-0.008 0.02-0.014 10.058-3.8062 23.121-2.5304 32.701 2.895 0.33-0.007 0.67-0.007 1 0 0.06-0.053 0.13-0.094 0.19-0.145 0.51-0.427 1.04-0.839 1.59-1.23 0.21-0.149 0.43-0.29 0.65-0.434 0.42-0.287 0.85-0.562 1.29-0.826 0.24-0.14 0.48-0.278 0.73-0.414 0.46-0.259 0.93-0.5 1.41-0.733 0.21-0.107 0.43-0.219 0.65-0.32 1.41-0.645 2.87-1.1859 4.38-1.6171 0.23-0.0663 0.46-0.1172 0.69-0.1797 0.54-0.14 1.08-0.2691 1.62-0.3828 0.27-0.0538 0.53-0.1075 0.79-0.1563 0.56-0.1 1.11-0.1814 1.67-0.2539 0.24-0.0312 0.47-0.0655 0.71-0.0918 4.92-0.5187 10.01 0.0785 14.68 1.9785 0.37 0.1551 0.75 0.3221 1.14 0.5061 0.24 0.109 0.48 0.233 0.72 0.355 0.16 0.078 0.31 0.148 0.46 0.229 0.29 0.152 0.59 0.319 0.89 0.488 0.11 0.058 0.21 0.114 0.31 0.172 0.34 0.19 0.67 0.389 1.01 0.596 0.08 0.042 0.15 0.088 0.22 0.134 0.36 0.223 0.73 0.458 1.1 0.698 0.05 0.033 0.1 0.065 0.15 0.101 0.39 0.251 0.78 0.52 1.17 0.787 0.03 0.025 0.07 0.046 0.1 0.071 0.41 0.285 0.82 0.578 1.23 0.881 0.01 0.012 0.03 0.021 0.05 0.033 0.42 0.312 0.85 0.633 1.27 0.967h0.01c0.08 0.068 0.17 0.137 0.26 0.207 0.17 0.131 0.34 0.26 0.51 0.394 23.71 1.124 45.74 5.835 64.58 13.225 1.56-1.173 2.54-1.663 3.03-1.869-19.73-8.108-42.52-13.085-66.49-14.321-3.81-2.947-7.47-5.1795-10.58-6.447-4.07-1.6575-8.42-2.4532-12.75-2.4297zm20.05 23.157c2.93 2.302 5.92 4.415 8.53 5.503 1.88 0.21 4.3 0.588 7.1 1.024 9.71 1.52 24.11 3.759 35.64 2.283-15.36-4.936-32.75-8.043-51.27-8.81zm-83.143 13.99c-1.361 0.582-2.689 1.192-4.005 1.808-0.245 0.115-0.494 0.229-0.737 0.346-1.321 0.63-2.626 1.273-3.9 1.936-0.054 0.03-0.107 0.055-0.16 0.084-0.843 0.438-1.656 0.894-2.477 1.345-0.44 0.243-0.893 0.477-1.328 0.723-0.023 0.013-0.047 0.026-0.07 0.039-0.092 0.052-0.185 0.102-0.276 0.154-0.008 0.005-0.017 0.009-0.025 0.014-1.162 0.662-2.298 1.337-3.414 2.025l-0.002 0.002c-20.633 12.72-33.27 29.784-33.27 48.555 0 39.325 55.435 71.195 123.82 71.195 39.09 0 73.95-10.42 96.64-26.7-1.88-0.48-6.07-0.5-10.1-0.45-8.3 9.19-27.57 9.16-36.65 8.58-0.65 0.92-1.52 1.67-2.51 2.17-5.6 2.79-19.75 4.99-31.82 3.96-0.54 1.31-1.71 2.88-4.37 3.69-17.85 5.44-43.91 4.81-53.44-1.19-20.759 1.8-54.12-11.12-60.854-35.92-5.634-3.39-11.061-10.44-12.785-13.6-0.569-1.03-1.379-2.95-1.379-5.39 0-2.29 0.72-5.03 3.041-7.943 1.735-2.165 6.107-5.672 9.752-7.896-0.985-2.729-1.868-5.803-2.24-7.889-0.154-0.849-0.223-1.678-0.223-2.484 0-4.399 2.198-8.096 6.172-10.166 1.978-1.034 5.28-1.999 8.803-2.617-0.52-1.185-0.926-2.298-1.176-3.317-0.277-1.09-0.408-2.196-0.408-3.285 0-3.837 1.629-7.499 4.488-9.727 2.089-1.621 7.878-4.658 14.987-6.41-0.043-0.552-0.072-1.095-0.081-1.642z" transform="matrix(0 .8 .8 0 253.38 799.43)" fill="#003087"/><path d="m97.977 35.205c-2.811-0.024-5.595 1.714-8.12 4.381-1.295 1.367-1.079 2.522 0.864 1.656 1.821-0.809 4.097-1.942 5.394-1.513-3.237 10.575-0.865 20.719 10.355 20.931-2.37 2.589-7.117 3.018-10.14 3.018-3.021 0-2.859 1.353-0.215 1.732 10.575 1.513 20.065-2.808 26.825-11.439l4.32-0.864c2.88-0.857 1.97-3.011-0.29-2.587-4.6 0.863-8.92 0.862-15.54-4.319-4.08-3.191-6.9-8.625-10.64-10.353-0.937-0.431-1.877-0.635-2.813-0.643zm142.96 3.686c-0.66 0.017-1.34 0.084-1.99 0.191-2.05 0.341-6.8 3.469-8.19 5.178-1.95 2.37-0.65 4.534 2.16 4.097 2.8-0.428 6.68-3.664 7.76-4.744 1.08-1.078 1.72-1.505 3.88 0.219 2.16 1.726 6.05 3.666 10.58 3.666 2.8 0 2.8-1.272 0.21-1.725-3.66-0.648-7.12-1.728-9.7-5.394-0.81-1.139-2.71-1.54-4.71-1.488z" transform="matrix(0 .8 .8 0 253.38 799.43)" fill="#003087"/><path d="m99.785 42.75c-3.454 8.134-0.581 13.953 5.245 14.891 4.94 0.792 8.99 0.213 11.8-4.102 0 0-4.6-1.795-5.69-2.873-1.08 1.724-3.59 3.235-5.39 3.52-2.39 0.383-2.79-0.564-1.22-2.01 1-0.94 2.3-3.094 2.08-4.531-0.78-1.083-5.1-4.537-6.825-4.895zm186.42 16.184c-1.4 0.122-2.58 1.432-3.66 2.222-1.24 0.912-3.04 1.12-4.53 0.903-0.37 3.997-2.47 7.955-4.39 11.406-0.9 1.632-1.96 3.149-2.92 4.74-1.23 2.046 0.82 2.065 2.24 1.336 3.76-1.954 6.61-5.915 8.81-9.414 2.01-3.186 4.45-7.29 4.45-11.193zm-17.77 1.679c-1.32 0-2.61 0.097-3.81 0.266 0.72 3.894-0.27 8.072-1.42 11.781-1.19 3.835-2.78 7.575-4.71 11.09-0.75 1.349-0.6 2.769 1.21 1.938 1.37-0.627 2.52-1.745 3.54-2.829 2.62-2.786 4.76-6.064 6.62-9.402 2.09-3.754 3.89-7.754 4.91-11.934-1.91-0.639-4.15-0.909-6.34-0.91zm-8.08 0.473c-0.11 0.001-0.25 0.015-0.41 0.029-1.32 0.119-2.6 0.503-3.84 0.942-2.46 0.876-4.53 2.166-6.72 3.566-1.47 0.944-2.98 1.841-4.57 2.568-0.75 0.344-1.51 0.65-2.3 0.887 0.14 0.66 0.26 1.334 0.35 2.004 0.42 3.104 0.42 6.268 0.25 9.391-0.15 2.733-0.43 5.484-0.98 8.172-0.21 1.016-0.83 2.443-0.13 3.386 0.61 0.835 1.89 0.479 2.67 0.133 2.85-1.27 5.31-4.133 7.29-6.445 1.91-2.223 3.41-4.675 4.7-7.303 2.23-4.565 4.46-9.978 4.39-15.15-0.01-0.528-0.05-1.06-0.16-1.582-0.1-0.497-0.21-0.602-0.54-0.598zm-76.37 10.857c-0.72 0.02-1.44 0.128-2.14 0.282-3.75 0.822-7.9 2.856-10.63 5.591 1.94 1.684 3.52 3.876 4.01 6.436 0.18 0.899 0.22 1.827 0.11 2.738-0.08 0.663-0.26 1.656 0.37 2.139 1.43 1.096 4.23-1.34 5.17-2.274 1.69-1.675 2.98-3.76 3.93-5.931 1.04-2.369 1.73-4.969 1.68-7.567-0.01-0.615 0.11-1.016-0.52-1.197-0.41-0.119-0.84-0.182-1.26-0.205-0.24-0.015-0.48-0.018-0.72-0.012zm51.19 0.909c-2 2.006-5.06 3.089-7.7 3.966-2.63 0.879-5.46 1.681-8.26 1.752 1.58 3.063 1.65 7.108 1.38 10.469-0.1 1.216-0.77 2.704-0.38 3.885 0.56 1.777 2.71 0.826 3.75 0.099 6.35-4.441 10.24-12.645 11.21-20.171zm-39.15 0.863c1.05 2.994 0.99 6.47 0.77 9.594-0.08 1.257-0.2 2.547-0.52 3.769-0.28 1.075-0.65 2.389 0.75 2.83 2.59 0.819 6.28-2.119 8.12-3.615 2.64-2.129 5.15-4.966 5.87-8.367-5.13-0.858-10.06-2.619-14.99-4.211zm-32.8 8.201c-1.54 1.464-3.49 2.552-5.33 3.59-2.01 1.134-4.08 2.204-6.21 3.099 1.43 2.2 2.33 5.163 2.15 7.805-0.06 0.895-0.85 2.303 0.16 2.92 1.16 0.72 2.52-0.579 3.29-1.312 4.1-3.899 7.13-10.381 5.94-16.102zm-65.074 3.475c-2.883 0.017-6.247 0.59-8.503 2.24 0.447 3.969 2.188 8.204 5.451 10.681 0.937 0.712 3.309 2.168 4.226 0.694 0.494-0.798 0.196-1.992 0.26-2.877 0.079-1.111 0.288-2.213 0.58-3.289 0.56-2.083 1.41-4.09 2.45-5.975 0.3-0.534 0.33-0.569-0.23-0.83-0.28-0.129-0.57-0.232-0.87-0.31-0.7-0.19-1.44-0.275-2.162-0.309-0.388-0.019-0.79-0.028-1.202-0.025zm18.354 3.97c0.2 2.645-1.12 5.521-2.32 7.801-0.44 0.833-1.49 1.924-1.52 2.878-0.05 1.21 1.57 1.06 2.34 0.88 4.62-1.063 10.3-4.347 12.4-8.756-3.57-0.299-7.65-1.263-10.9-2.803zm27.84 1.725c-3.09 1.122-6.96 1.783-10.25 1.508 0.35 2.512 0.02 5.229-0.58 7.676-0.25 1.01-0.78 1.83-1.09 2.79-0.35 1.11 0.78 1.36 1.62 1.13 2.71-0.74 5.33-3.43 7.02-5.565 1.7-2.146 3.09-4.758 3.28-7.539zm24.8 4.988c-0.6 0.012-1 0.426-0.74 1.592 0.76 3.504-1.37 8.404-4.1 10.574 2.57-0.69 5.47-0.56 8.09-0.31 3.07 0.29 6.47 0.89 9.06 2.68-0.39-1.56-1.35-3.02-2.21-4.36-1.14-1.75-2.39-3.42-3.75-5.02-1.29-1.537-2.67-3.133-4.3-4.33-0.61-0.446-1.44-0.838-2.05-0.826zm28.61 5.196c-0.58 0.01-1.05 0.74-1.3 1.69-0.34 1.23-0.95 2.4-1.63 3.49-1.66 2.67-4.15 5.37-7.33 6.1 2.4 0.89 4.77 1.82 7.11 2.84 2.52 1.09 5.19 2.24 7.35 3.96 0.67-2.97 0.04-6.31-0.55-9.24-0.52-2.6-1.05-5.72-2.53-7.99-0.39-0.61-0.78-0.86-1.12-0.85zm-106.3 3.46c-1.633 0.15-3.151 2.6-3.824 3.72-1.292 2.17-2.269 4.69-2.402 7.23 3.537-1.01 8.2-1.7 11.76-0.43-1.595-1.43-2.553-3.66-3.198-5.66-0.279-0.86-0.528-1.76-0.576-2.66-0.041-0.81-0.16-1.81-1.055-2.12-0.236-0.08-0.471-0.11-0.705-0.08zm52.815 0.26c-0.65-0.03-1.08 0.42-0.89 1.85 0.24 1.85-0.21 3.87-0.63 5.66-0.48 2.02-1.11 4.16-2.25 5.91 3.57-2.82 7.95-4.33 12.05-6.18-1.12-2.34-3.5-4.18-5.48-5.76-0.75-0.6-1.96-1.44-2.8-1.48zm-37.91 0.51c-0.2 0.01-0.43 0.08-0.71 0.21-1.44 0.7-2.31 2.68-2.92 4.05-0.9 2-1.6 4.25-1.53 6.46 1.27 0.39 2.49 1.04 3.66 1.65 1.65 0.86 3.27 1.79 4.82 2.83 1.02 0.67 2.22 1.42 2.95 2.43 0-1.82-1.15-3.84-2.16-5.29-1.68-2.43-3.24-5.98-3.23-8.96 0.01-0.92 0.48-3.48-0.88-3.38zm121.06 1.52c-0.9 0.12-1.64 1.54-1.95 2.19-1.4 3-4.17 5.33-6.84 7.18-2.87 1.98-6.08 3.65-9.44 4.58 3.03 1.1 6.39 1.39 9.58 1.62 1.8 0.12 3.59 0.19 5.39 0.22 0.75 0.01 1.49 0.02 2.24 0.01 0.61 0 1.6 0.24 1.76-0.4 0.9-3.82 0.81-7.84 0.69-11.74-0.03-0.93 0.19-3.26-1.03-3.63-0.13-0.04-0.27-0.05-0.4-0.03zm21 0.31c-1.04-0.02-1.9 1.72-2.22 2.42-1.23 2.61-3.54 4.88-5.59 6.83-2.53 2.41-5.39 4.79-8.66 6.12 3.24 0.44 6.56 0.53 9.82 0.43 1.63-0.05 3.25-0.16 4.86-0.39 0.69-0.09 1.37-0.22 2.04-0.38 0.87-0.21 0.82-0.47 0.95-1.32 0.51-3.29 0.77-6.73 0.51-10.05-0.09-1.08-0.17-2.94-1.25-3.53-0.16-0.09-0.31-0.13-0.46-0.13zm18.2 2.75c-0.75 0.12-1.04 1.34-1.35 1.9-0.76 1.35-1.82 2.57-2.9 3.7-0.12 1.57-0.64 3.14-1.07 4.64 2.01 0.1 4.65-0.14 6.31-1.39 1.55-1.14 1.27-4.72 0.92-6.36-0.17-0.85-0.58-2.23-1.56-2.47-0.13-0.03-0.24-0.04-0.35-0.02zm-9.51 0.18c-0.12 0.01-0.24 0.04-0.38 0.09-1.43 0.54-2.43 2.85-3.31 4.04 0.11 2.36-0.25 4.78-0.54 7.12 1.74 0.1 3.55-0.22 5.27-0.54 0.45-0.08 0.88-2.29 0.97-2.68 0.25-1.12 0.39-2.27 0.38-3.41-0.02-1.22-0.57-4.84-2.39-4.62zm-133.99 0.29c-0.99 0.03-1.32 1.08-1.11 1.9 0.5 1.85-0.56 4.25-1.45 5.82-1.04 1.86-2.81 2.61-4.23 4.09-0.37 0.38-0.68 0.81-0.89 1.3-0.32 0.74-0.03 0.9 0.57 1.37 0.79 0.61 1.7 1.07 2.66 1.35 1.85 0.55 3.84 0.49 5.72 0.12 0.87-0.18 4.5-0.9 4.55-1.96 0.11-2.08-0.21-4.19-0.75-6.2-0.56-2.13-1.39-4.27-2.71-6.05-0.54-0.75-1.33-1.76-2.36-1.74z" transform="matrix(0 .8 .8 0 253.38 799.43)" fill="#fff"/></g></g></svg>
